<svg width="69" height="60" viewBox="0 0 69 60" fill="none" xmlns="http://www.w3.org/2000/svg">
<g opacity="0.3">
<path fill-rule="evenodd" clip-rule="evenodd" d="M29.0385 12.2656C29.3 11.7818 29.6887 11.3785 30.1626 11.0994C30.6365 10.8203 31.1776 10.6759 31.7276 10.6818L37.7095 10.773C38.258 10.785 38.7928 10.9462 39.2565 11.2393C39.7203 11.5324 40.0954 11.9463 40.3416 12.4365L42.7344 17.2449L46.9617 16.886C47.503 16.843 48.0458 16.9468 48.5331 17.1864C49.0204 17.426 49.434 17.7926 49.7304 18.2476L52.7499 22.9306C53.0742 23.4349 53.2395 24.025 53.2242 24.6244C53.209 25.2238 53.014 25.8047 52.6645 26.2919L50.4426 29.4025L52.8069 32.5245C53.5418 33.4931 53.6159 34.8148 52.9892 35.863L50.1406 40.6372C49.8575 41.1055 49.4525 41.488 48.9688 41.7439C48.4851 41.9997 47.941 42.1194 47.3946 42.09L42.9224 41.8165L40.1707 47.451C39.9216 47.9518 39.5383 48.3737 39.0635 48.6694C38.5887 48.9652 38.041 49.1232 37.4817 49.1259H31.3174C30.759 49.1222 30.2125 48.9636 29.7388 48.6679C29.2651 48.3723 28.8827 47.951 28.634 47.451L26.0476 42.1584L21.262 42.5913C20.7103 42.6376 20.1566 42.5314 19.6612 42.2842C19.1659 42.0371 18.748 41.6585 18.4533 41.1898L15.4281 36.3188C15.1073 35.8018 14.9517 35.1992 14.9823 34.5915C15.0128 33.9838 15.228 33.3999 15.5991 32.9176L18.3337 29.3569L16.1346 26.2862C15.7859 25.7985 15.5919 25.2172 15.5777 24.6178C15.5635 24.0185 15.7297 23.4286 16.0548 22.9249L19.0743 18.2419C19.3703 17.7878 19.783 17.4218 20.2692 17.1822C20.7553 16.9427 21.297 16.8384 21.8374 16.8803L26.378 17.2677L29.0385 12.2656ZM32.4454 14.966L29.7564 20.0251C29.4788 20.5403 29.0575 20.9637 28.5437 21.2439C28.0299 21.5241 27.4457 21.6489 26.8622 21.6032L22.2476 21.2101L20.1169 24.5144L22.3615 27.6478C22.7349 28.169 22.931 28.7965 22.9207 29.4376C22.9105 30.0787 22.6945 30.6995 22.3046 31.2085L19.5244 34.8205L21.6665 38.2729L26.5432 37.8286C27.1475 37.7726 27.7545 37.9017 28.2836 38.1988C28.8127 38.496 29.239 38.947 29.5057 39.4921L32.1207 44.8531H36.6784L39.4586 39.1731C39.7212 38.6455 40.1325 38.2064 40.6417 37.9098C41.1509 37.6132 41.7358 37.4721 42.3242 37.5038L46.8705 37.7773L48.8759 34.416L46.4603 31.2256C46.076 30.7169 45.8644 30.0987 45.8562 29.4613C45.848 28.8238 46.0437 28.2004 46.4147 27.682L48.6879 24.5144L46.5572 21.2101L42.2274 21.5747C41.629 21.6257 41.0291 21.4954 40.5058 21.2007C39.9825 20.906 39.56 20.4607 39.2933 19.9225L36.8607 15.0344L32.4454 14.966Z" fill="#865BDA"/>
<path d="M58.5834 37.886C56.8552 43.221 53.4253 47.8422 48.8194 51.0414C44.2134 54.2406 38.6856 55.8414 33.0828 55.5983C27.4801 55.3552 22.1117 53.2817 17.8001 49.6956C13.4886 46.1095 10.4719 41.2085 9.21223 35.7439L14.0605 34.7867L4.83115 25.2384L0 37.584L5.11031 36.5813C6.5365 42.9963 10.0357 48.7629 15.0671 52.9902C20.0985 57.2175 26.3821 59.6701 32.9469 59.969C39.5116 60.2679 45.9921 58.3965 51.3868 54.6439C56.7816 50.8913 60.7903 45.4665 62.7936 39.2077L58.5834 37.886ZM63.3462 23.4153C61.9193 17.0006 58.4195 11.2344 53.3877 7.00771C48.3559 2.781 42.0721 0.329082 35.5074 0.0308343C28.9427 -0.267414 22.4625 1.60461 17.0682 5.35764C11.6738 9.11066 7.66562 14.5358 5.66293 20.7946L9.72497 22.1164C11.4527 16.7812 14.882 12.1597 19.4875 8.96008C24.0931 5.76043 29.6207 4.15914 35.2233 4.40158C40.826 4.64402 46.1946 6.71682 50.5065 10.3024C54.8185 13.8879 57.8358 18.7883 59.0961 24.2528L54.2479 25.2156L63.4772 34.7412L68.3653 22.4126L63.3462 23.4153Z" fill="#865BDA"/>
<path fill-rule="evenodd" clip-rule="evenodd" d="M34.1944 27.7728C33.6278 27.7728 33.0844 27.9979 32.6837 28.3986C32.2831 28.7992 32.058 29.3426 32.058 29.9093C32.058 30.4759 32.2831 31.0193 32.6837 31.4199C33.0844 31.8206 33.6278 32.0457 34.1944 32.0457C34.761 32.0457 35.3044 31.8206 35.7051 31.4199C36.1057 31.0193 36.3308 30.4759 36.3308 29.9093C36.3308 29.3426 36.1057 28.7992 35.7051 28.3986C35.3044 27.9979 34.761 27.7728 34.1944 27.7728ZM27.7852 29.9093C27.7852 28.2094 28.4604 26.5792 29.6624 25.3772C30.8644 24.1753 32.4946 23.5 34.1944 23.5C35.8942 23.5 37.5245 24.1753 38.7264 25.3772C39.9284 26.5792 40.6037 28.2094 40.6037 29.9093C40.6037 31.6091 39.9284 33.2393 38.7264 34.4413C37.5245 35.6432 35.8942 36.3185 34.1944 36.3185C32.4946 36.3185 30.8644 35.6432 29.6624 34.4413C28.4604 33.2393 27.7852 31.6091 27.7852 29.9093Z" fill="#865BDA"/>
</g>
</svg>
